<?xml version="1.0" encoding="utf-8"?>
<!-- Generator: Adobe Illustrator 21.0.2, SVG Export Plug-In . SVG Version: 6.00 Build 0)  -->
<svg version="1.1" id="logo" xmlns="http://www.w3.org/2000/svg" xmlns:xlink="http://www.w3.org/1999/xlink" x="0px" y="0px"
	 viewBox="0 0 6290.5 2834.6" style="enable-background:new 0 0 6290.5 2834.6;" xml:space="preserve">
<style type="text/css">
	.st0{fill:#1A3462;}
	.st1{fill:#14509C;}
	.st2{fill:#F78F1E;}
</style>
<polygon class="st0" points="2312.5,676.7 1648.5,676.7 1152.5,1537.7 1812.5,1537.7 "/>
<polygon class="st0" points="1315,676.7 651,676.7 155,1537.7 815,1537.7 "/>
<polygon class="st1" points="651,676.7 1315,676.7 1811,1537.7 1151,1537.7 "/>
<polygon class="st1" points="1650,676.7 2314,676.7 2810,1537.7 2150,1537.7 "/>
<polygon class="st2" points="3310,676.4 2646,676.4 2150,1537.4 2477.7,2103.3 "/>
<polygon class="st2" points="3168.6,1075.4 3020.1,1337.2 3675.6,1337.2 3821.1,1075.4 "/>
<g>
	<path class="st1" d="M3061.1,1921.9v175.9h-59.9v-393.2h89.2c26.1,0,46.4,1.7,60.8,5.1c14.4,3.4,26.7,9,36.9,16.9
		c12.2,9.5,21.6,21.8,28.2,36.8c6.6,15,9.9,31.5,9.9,49.4c0,31.5-7.6,56.2-22.8,74c-15.2,17.8-37.7,28.5-67.4,32.1l135.4,178.9
		h-72.2l-130.8-175.9H3061.1z M3065.1,1872.3h11.5c33.8,0,56.3-3.9,67.4-11.8c11.1-7.9,16.7-21.8,16.7-41.9c0-21.7-6-36.9-17.9-45.8
		c-11.9-8.9-34-13.3-66.2-13.3h-11.5V1872.3z"/>
	<path class="st1" d="M3412.1,1704.7h63.1v238.7c0,35.4,8.2,62.1,24.6,79.9c16.4,17.8,40.9,26.7,73.5,26.7
		c32.4,0,56.8-8.9,73.2-26.7c16.4-17.8,24.6-44.4,24.6-79.9v-238.7h63.9v244.7c0,53.2-13.4,93-40.3,119.4
		c-26.9,26.4-67.3,39.6-121.4,39.6c-54.1,0-94.4-13.2-121.1-39.5c-26.7-26.3-40-66.2-40-119.5V1704.7z"/>
	<path class="st1" d="M4518.6,1903.7c-0.7-3-1.9-11.5-3.5-25.2c-1.4-11.5-2.7-20.9-3.8-28.5c-1.6,9-3.9,17.9-6.8,26.9
		c-3,9-6.7,18.1-11.1,27.4l-102.9,209.5l-102.9-213.8c-4.3-8.8-8-17.3-11.1-25.5c-3.1-8.2-5.9-16.4-8.2-24.4
		c-0.2,8.2-0.9,16.9-2,25.9c-1.2,9-2.9,18.5-5.2,28.3l-42.2,193.6h-58.8L4253,1688l116,248.1c1.8,3.9,4.5,10.5,8.2,19.6
		c3.7,9.1,8.1,20.4,13.3,33.8c3.8-11.3,9.7-25.6,17.7-43c2.1-4.7,3.8-8.2,4.8-10.7l113.3-247.9l95.1,409.8h-59.4L4518.6,1903.7z"/>
	<path class="st1" d="M4861.6,2097.9v-179.9l-132.4-213.2h67.1l82.4,133.5c2,3.4,4.4,7.9,7.4,13.4c3,5.6,5.9,11.5,9,18
		c2.5-6.3,5.1-12.2,7.9-17.7c2.8-5.5,5.7-10.7,8.7-15.3l84.6-131.9h63.9L4925,1917.9v179.9H4861.6z"/>
	<path class="st1" d="M5207.5,2097.9v-393.2H5427v54.2h-155.5v98H5427v56.1h-155.5v184.8H5207.5z"/>
	<path class="st1" d="M5601.8,2097.9v-393.2h63.9v393.2H5601.8z"/>
	<path class="st1" d="M5862.1,2097.9v-408.7l249.8,240.4c6.8,6.8,13.7,14.1,20.7,21.8c7,7.7,14.3,16.4,22,26v-272.6h59.1v408.5
		l-254.9-244.7c-6.8-6.6-13.4-13.6-19.7-20.9c-6.4-7.3-12.4-15-18.1-23.1v273.4H5862.1z"/>
</g>
<circle class="st2" cx="3953.7" cy="2066.3" r="89.3"/>
<polygon class="st2" points="3394.6,676.7 3246.1,938.5 3901.6,938.5 4047.1,676.7 "/>
</svg>
